<mxfile host="app.diagrams.net" agent="Mozilla/5.0 (Windows NT 10.0; Win64; x64) AppleWebKit/537.36 (KHTML, like Gecko) Chrome/131.0.0.0 Safari/537.36" version="26.0.3">
  <diagram id="C5RBs43oDa-KdzZeNtuy" name="Page-1">
    <mxGraphModel dx="1290" dy="530" grid="1" gridSize="10" guides="1" tooltips="1" connect="1" arrows="1" fold="1" page="1" pageScale="1" pageWidth="827" pageHeight="1169" math="0" shadow="0">
      <root>
        <mxCell id="WIyWlLk6GJQsqaUBKTNV-0" />
        <mxCell id="WIyWlLk6GJQsqaUBKTNV-1" parent="WIyWlLk6GJQsqaUBKTNV-0" />
        <mxCell id="s78YzIpDpBnmM6S_5xIx-2" style="edgeStyle=orthogonalEdgeStyle;rounded=0;orthogonalLoop=1;jettySize=auto;html=1;exitX=0.5;exitY=1;exitDx=0;exitDy=0;exitPerimeter=0;entryX=0.5;entryY=0;entryDx=0;entryDy=0;" edge="1" parent="WIyWlLk6GJQsqaUBKTNV-1" source="s78YzIpDpBnmM6S_5xIx-0" target="s78YzIpDpBnmM6S_5xIx-1">
          <mxGeometry relative="1" as="geometry" />
        </mxCell>
        <mxCell id="s78YzIpDpBnmM6S_5xIx-0" value="START" style="strokeWidth=2;html=1;shape=mxgraph.flowchart.start_1;whiteSpace=wrap;" vertex="1" parent="WIyWlLk6GJQsqaUBKTNV-1">
          <mxGeometry x="350" y="40" width="100" height="60" as="geometry" />
        </mxCell>
        <mxCell id="s78YzIpDpBnmM6S_5xIx-4" style="edgeStyle=orthogonalEdgeStyle;rounded=0;orthogonalLoop=1;jettySize=auto;html=1;exitX=0.5;exitY=1;exitDx=0;exitDy=0;" edge="1" parent="WIyWlLk6GJQsqaUBKTNV-1" source="s78YzIpDpBnmM6S_5xIx-1" target="s78YzIpDpBnmM6S_5xIx-3">
          <mxGeometry relative="1" as="geometry" />
        </mxCell>
        <mxCell id="s78YzIpDpBnmM6S_5xIx-1" value="READ BILLVALUE" style="shape=parallelogram;html=1;strokeWidth=2;perimeter=parallelogramPerimeter;whiteSpace=wrap;rounded=1;arcSize=12;size=0.23;" vertex="1" parent="WIyWlLk6GJQsqaUBKTNV-1">
          <mxGeometry x="275" y="160" width="250" height="60" as="geometry" />
        </mxCell>
        <mxCell id="s78YzIpDpBnmM6S_5xIx-6" style="edgeStyle=orthogonalEdgeStyle;rounded=0;orthogonalLoop=1;jettySize=auto;html=1;exitX=0.5;exitY=1;exitDx=0;exitDy=0;" edge="1" parent="WIyWlLk6GJQsqaUBKTNV-1" source="s78YzIpDpBnmM6S_5xIx-3" target="s78YzIpDpBnmM6S_5xIx-5">
          <mxGeometry relative="1" as="geometry" />
        </mxCell>
        <mxCell id="s78YzIpDpBnmM6S_5xIx-3" value="SERVICEFEE= BILLVALUE +( BILLVALUE* 0.1)" style="rounded=1;whiteSpace=wrap;html=1;absoluteArcSize=1;arcSize=14;strokeWidth=2;" vertex="1" parent="WIyWlLk6GJQsqaUBKTNV-1">
          <mxGeometry x="232.5" y="280" width="335" height="70" as="geometry" />
        </mxCell>
        <mxCell id="s78YzIpDpBnmM6S_5xIx-8" style="edgeStyle=orthogonalEdgeStyle;rounded=0;orthogonalLoop=1;jettySize=auto;html=1;exitX=0.5;exitY=1;exitDx=0;exitDy=0;entryX=0.5;entryY=0;entryDx=0;entryDy=0;" edge="1" parent="WIyWlLk6GJQsqaUBKTNV-1" source="s78YzIpDpBnmM6S_5xIx-5" target="s78YzIpDpBnmM6S_5xIx-7">
          <mxGeometry relative="1" as="geometry" />
        </mxCell>
        <mxCell id="s78YzIpDpBnmM6S_5xIx-5" value="TOTALBILL = SERVICEFEE + (SERVICEFEE * 0.16)" style="rounded=1;whiteSpace=wrap;html=1;absoluteArcSize=1;arcSize=14;strokeWidth=2;" vertex="1" parent="WIyWlLk6GJQsqaUBKTNV-1">
          <mxGeometry x="202.5" y="400" width="395" height="70" as="geometry" />
        </mxCell>
        <mxCell id="s78YzIpDpBnmM6S_5xIx-10" style="edgeStyle=orthogonalEdgeStyle;rounded=0;orthogonalLoop=1;jettySize=auto;html=1;exitX=0.5;exitY=1;exitDx=0;exitDy=0;" edge="1" parent="WIyWlLk6GJQsqaUBKTNV-1" source="s78YzIpDpBnmM6S_5xIx-7" target="s78YzIpDpBnmM6S_5xIx-9">
          <mxGeometry relative="1" as="geometry" />
        </mxCell>
        <mxCell id="s78YzIpDpBnmM6S_5xIx-7" value="PRINT&amp;nbsp; TOTALBILL" style="shape=parallelogram;html=1;strokeWidth=2;perimeter=parallelogramPerimeter;whiteSpace=wrap;rounded=1;arcSize=12;size=0.23;" vertex="1" parent="WIyWlLk6GJQsqaUBKTNV-1">
          <mxGeometry x="270" y="510" width="260" height="60" as="geometry" />
        </mxCell>
        <mxCell id="s78YzIpDpBnmM6S_5xIx-9" value="END" style="strokeWidth=2;html=1;shape=mxgraph.flowchart.terminator;whiteSpace=wrap;" vertex="1" parent="WIyWlLk6GJQsqaUBKTNV-1">
          <mxGeometry x="350" y="620" width="100" height="60" as="geometry" />
        </mxCell>
        <mxCell id="s78YzIpDpBnmM6S_5xIx-11" value="" style="endArrow=none;html=1;rounded=0;" edge="1" parent="WIyWlLk6GJQsqaUBKTNV-1">
          <mxGeometry width="50" height="50" relative="1" as="geometry">
            <mxPoint x="10" y="720" as="sourcePoint" />
            <mxPoint x="820" y="720" as="targetPoint" />
          </mxGeometry>
        </mxCell>
        <mxCell id="s78YzIpDpBnmM6S_5xIx-12" value="&lt;h1 style=&quot;margin-top: 0px;&quot;&gt;OPTIMIZED&lt;/h1&gt;" style="text;html=1;whiteSpace=wrap;overflow=hidden;rounded=0;" vertex="1" parent="WIyWlLk6GJQsqaUBKTNV-1">
          <mxGeometry x="40" y="760" width="180" height="120" as="geometry" />
        </mxCell>
        <mxCell id="s78YzIpDpBnmM6S_5xIx-15" style="edgeStyle=orthogonalEdgeStyle;rounded=0;orthogonalLoop=1;jettySize=auto;html=1;exitX=0.5;exitY=1;exitDx=0;exitDy=0;exitPerimeter=0;entryX=0.5;entryY=0;entryDx=0;entryDy=0;" edge="1" parent="WIyWlLk6GJQsqaUBKTNV-1" source="s78YzIpDpBnmM6S_5xIx-13" target="s78YzIpDpBnmM6S_5xIx-14">
          <mxGeometry relative="1" as="geometry" />
        </mxCell>
        <mxCell id="s78YzIpDpBnmM6S_5xIx-13" value="STRAT" style="strokeWidth=2;html=1;shape=mxgraph.flowchart.start_1;whiteSpace=wrap;" vertex="1" parent="WIyWlLk6GJQsqaUBKTNV-1">
          <mxGeometry x="350" y="770" width="100" height="60" as="geometry" />
        </mxCell>
        <mxCell id="s78YzIpDpBnmM6S_5xIx-18" style="edgeStyle=orthogonalEdgeStyle;rounded=0;orthogonalLoop=1;jettySize=auto;html=1;exitX=0.5;exitY=1;exitDx=0;exitDy=0;entryX=0.5;entryY=0;entryDx=0;entryDy=0;" edge="1" parent="WIyWlLk6GJQsqaUBKTNV-1" source="s78YzIpDpBnmM6S_5xIx-14" target="s78YzIpDpBnmM6S_5xIx-17">
          <mxGeometry relative="1" as="geometry" />
        </mxCell>
        <mxCell id="s78YzIpDpBnmM6S_5xIx-14" value="READ BILLVALUE" style="shape=parallelogram;html=1;strokeWidth=2;perimeter=parallelogramPerimeter;whiteSpace=wrap;rounded=1;arcSize=12;size=0.23;" vertex="1" parent="WIyWlLk6GJQsqaUBKTNV-1">
          <mxGeometry x="265" y="880" width="270" height="60" as="geometry" />
        </mxCell>
        <mxCell id="s78YzIpDpBnmM6S_5xIx-20" style="edgeStyle=orthogonalEdgeStyle;rounded=0;orthogonalLoop=1;jettySize=auto;html=1;exitX=0.5;exitY=1;exitDx=0;exitDy=0;" edge="1" parent="WIyWlLk6GJQsqaUBKTNV-1" source="s78YzIpDpBnmM6S_5xIx-17">
          <mxGeometry relative="1" as="geometry">
            <mxPoint x="400" y="1130" as="targetPoint" />
          </mxGeometry>
        </mxCell>
        <mxCell id="s78YzIpDpBnmM6S_5xIx-17" value="BILLVALUE = BILLVALUE * 1.1&lt;div&gt;&lt;br&gt;&lt;/div&gt;&lt;div&gt;TOTALBILL = BILLVALUE 1.16&lt;/div&gt;" style="rounded=1;whiteSpace=wrap;html=1;absoluteArcSize=1;arcSize=14;strokeWidth=2;" vertex="1" parent="WIyWlLk6GJQsqaUBKTNV-1">
          <mxGeometry x="285" y="1000" width="230" height="70" as="geometry" />
        </mxCell>
        <mxCell id="s78YzIpDpBnmM6S_5xIx-23" style="edgeStyle=orthogonalEdgeStyle;rounded=0;orthogonalLoop=1;jettySize=auto;html=1;exitX=0.5;exitY=1;exitDx=0;exitDy=0;" edge="1" parent="WIyWlLk6GJQsqaUBKTNV-1" source="s78YzIpDpBnmM6S_5xIx-21" target="s78YzIpDpBnmM6S_5xIx-22">
          <mxGeometry relative="1" as="geometry" />
        </mxCell>
        <mxCell id="s78YzIpDpBnmM6S_5xIx-21" value="PRINT TOTALBILL" style="shape=parallelogram;html=1;strokeWidth=2;perimeter=parallelogramPerimeter;whiteSpace=wrap;rounded=1;arcSize=12;size=0.23;" vertex="1" parent="WIyWlLk6GJQsqaUBKTNV-1">
          <mxGeometry x="275" y="1130" width="250" height="60" as="geometry" />
        </mxCell>
        <mxCell id="s78YzIpDpBnmM6S_5xIx-22" value="END" style="strokeWidth=2;html=1;shape=mxgraph.flowchart.terminator;whiteSpace=wrap;" vertex="1" parent="WIyWlLk6GJQsqaUBKTNV-1">
          <mxGeometry x="350" y="1240" width="100" height="60" as="geometry" />
        </mxCell>
      </root>
    </mxGraphModel>
  </diagram>
</mxfile>
